<svg width="16" height="16" viewBox="0 0 16 16" fill="none" xmlns="http://www.w3.org/2000/svg">
<path d="M16 8C16 3.582 12.418 -1.56574e-07 8 -3.49691e-07C3.582 -5.42808e-07 -1.56574e-07 3.582 -3.49691e-07 8C-5.42808e-07 12.418 3.582 16 8 16C12.418 16 16 12.418 16 8ZM7.52867 11.138L3.52867 7.138C3.39867 7.008 3.33333 6.83733 3.33333 6.66667C3.33333 6.496 3.39867 6.32533 3.52867 6.19533C3.78933 5.93467 4.21067 5.93467 4.47133 6.19533L8 9.724L11.5287 6.19533C11.7893 5.93467 12.2107 5.93467 12.4713 6.19533C12.732 6.456 12.732 6.87733 12.4713 7.138L8.47133 11.138C8.21067 11.3987 7.78933 11.3987 7.52867 11.138Z" fill="#D4AC59"/>
</svg>
