<svg width="24" height="24" viewBox="0 0 24 24" fill="none" xmlns="http://www.w3.org/2000/svg">
<path d="M12 0C5.373 0 0 5.373 0 12C0 18.627 5.373 24 12 24C18.627 24 24 18.627 24 12C24 5.373 18.627 0 12 0ZM16.707 12.707L10.707 18.707C10.512 18.902 10.256 19 10 19C9.744 19 9.488 18.902 9.293 18.707C8.902 18.316 8.902 17.684 9.293 17.293L14.586 12L9.293 6.707C8.902 6.316 8.902 5.684 9.293 5.293C9.684 4.902 10.316 4.902 10.707 5.293L16.707 11.293C17.098 11.684 17.098 12.316 16.707 12.707Z" fill="#D4AC59"/>
</svg>
