<svg width="70" height="70" viewBox="0 0 70 70" fill="none" xmlns="http://www.w3.org/2000/svg">
<g clip-path="url(#clip0)">
<path d="M34.9999 4.66663C27.2672 4.66663 20.9999 10.934 20.9999 18.6666V21C20.9999 28.7326 27.2672 35 34.9999 35C42.7326 35 48.9999 28.7326 48.9999 21V18.6666C48.9999 10.934 42.7326 4.66663 34.9999 4.66663ZM58.3834 28.761C55.3909 28.761 52.4006 29.9408 50.1256 32.2975C45.5522 36.9875 45.5522 44.6375 50.1256 49.3509C50.2422 49.4675 50.4048 49.6074 50.5448 49.7474C51.5015 50.6807 52.6206 51.5907 53.6939 52.0807V54.414L56.4465 57.8685L53.5299 60.8808L56.0272 63.7474L53.6939 66.0807L58.3606 70.7474L63.0272 66.0807V52.0807C64.1006 51.5907 65.2698 50.6807 66.2265 49.7474C66.3665 49.6074 66.5291 49.4675 66.6457 49.3509C71.2191 44.6375 71.2191 36.9875 66.6457 32.2975C64.3707 29.9408 61.3759 28.761 58.3834 28.761ZM58.3834 33.2545C59.2642 33.2545 60.1474 33.6027 60.8124 34.3027C62.1657 35.6794 62.1657 37.9203 60.8124 39.3203C59.4824 40.6969 57.2889 40.6969 55.9589 39.3203C54.6056 37.9203 54.6056 35.6794 55.9589 34.3027C56.6239 33.6027 57.5025 33.2545 58.3834 33.2545ZM35.0045 42.0045C25.6478 42.0045 13.6525 47.0675 10.1991 51.5475C8.07579 54.3242 10.108 58.3379 13.608 58.3379H44.315H49.0728L48.2115 57.2623V53.2018C45.0382 50.6818 42.8436 47.0197 42.2369 42.8431C39.7636 42.3064 37.3145 42.0045 35.0045 42.0045Z" fill="url(#paint0_linear)"/>
</g>
<defs>
<linearGradient id="paint0_linear" x1="13.8895" y1="11.2747" x2="71.3066" y2="14.6041" gradientUnits="userSpaceOnUse">
<stop stop-color="#D4AC59"/>
<stop offset="0.694326" stop-color="#FFDF9C"/>
<stop offset="1" stop-color="#D4AC59"/>
</linearGradient>
<clipPath id="clip0">
<rect width="70" height="70" fill="white"/>
</clipPath>
</defs>
</svg>
