<svg width="37" height="37" viewBox="0 0 37 37" fill="none" xmlns="http://www.w3.org/2000/svg">
<path d="M7.4 4.93332C6.03717 4.93332 4.93333 6.03715 4.93333 7.39999V29.6C4.93333 30.9628 6.03717 32.0667 7.4 32.0667H20.5813C21.9726 34.976 24.9377 37 28.3667 37C33.1201 37 37 33.1201 37 28.3667C37 24.9377 34.976 21.9726 32.0667 20.5812V7.39999C32.0667 6.03715 30.9628 4.93332 29.6 4.93332H7.4ZM7.4 7.39999H29.6V12.3333H7.4V7.39999ZM13.5667 16.0333C14.2475 16.0333 14.8 16.5859 14.8 17.2667C14.8 17.9475 14.2475 18.5 13.5667 18.5C12.8859 18.5 12.3333 17.9475 12.3333 17.2667C12.3333 16.5859 12.8859 16.0333 13.5667 16.0333ZM18.5 16.0333C19.1808 16.0333 19.7333 16.5859 19.7333 17.2667C19.7333 17.9475 19.1808 18.5 18.5 18.5C17.8192 18.5 17.2667 17.9475 17.2667 17.2667C17.2667 16.5859 17.8192 16.0333 18.5 16.0333ZM23.4333 16.0333C24.1141 16.0333 24.6667 16.5859 24.6667 17.2667C24.6667 17.9475 24.1141 18.5 23.4333 18.5C22.7525 18.5 22.2 17.9475 22.2 17.2667C22.2 16.5859 22.7525 16.0333 23.4333 16.0333ZM28.3667 16.0333C29.0475 16.0333 29.6 16.5859 29.6 17.2667C29.6 17.9475 29.0475 18.5 28.3667 18.5C27.6859 18.5 27.1333 17.9475 27.1333 17.2667C27.1333 16.5859 27.6859 16.0333 28.3667 16.0333ZM8.63333 20.9667C9.31413 20.9667 9.86667 21.5192 9.86667 22.2C9.86667 22.8808 9.31413 23.4333 8.63333 23.4333C7.95253 23.4333 7.4 22.8808 7.4 22.2C7.4 21.5192 7.95253 20.9667 8.63333 20.9667ZM13.5667 20.9667C14.2475 20.9667 14.8 21.5192 14.8 22.2C14.8 22.8808 14.2475 23.4333 13.5667 23.4333C12.8859 23.4333 12.3333 22.8808 12.3333 22.2C12.3333 21.5192 12.8859 20.9667 13.5667 20.9667ZM18.5 20.9667C19.1808 20.9667 19.7333 21.5192 19.7333 22.2C19.7333 22.8808 19.1808 23.4333 18.5 23.4333C17.8192 23.4333 17.2667 22.8808 17.2667 22.2C17.2667 21.5192 17.8192 20.9667 18.5 20.9667ZM28.3667 22.2C31.787 22.2 34.5333 24.9463 34.5333 28.3667C34.5333 31.787 31.787 34.5333 28.3667 34.5333C24.9463 34.5333 22.2 31.787 22.2 28.3667C22.2 24.9463 24.9463 22.2 28.3667 22.2ZM28.3474 23.4165C28.0207 23.4216 27.7094 23.5561 27.4818 23.7905C27.2542 24.0248 27.1289 24.34 27.1333 24.6667V28.8773L29.335 31.079C29.4487 31.1974 29.5848 31.2919 29.7354 31.357C29.886 31.4221 30.0481 31.4565 30.2122 31.4581C30.3763 31.4598 30.5391 31.4287 30.691 31.3667C30.8429 31.3047 30.9809 31.213 31.0969 31.0969C31.213 30.9809 31.3047 30.8429 31.3667 30.691C31.4287 30.5391 31.4598 30.3763 31.4581 30.2122C31.4565 30.0481 31.4221 29.886 31.357 29.7354C31.2919 29.5848 31.1974 29.4487 31.079 29.335L29.6 27.856V24.6667C29.6023 24.5016 29.5714 24.3379 29.5092 24.185C29.447 24.0321 29.3548 23.8933 29.238 23.7767C29.1212 23.6602 28.9822 23.5682 28.8292 23.5063C28.6762 23.4444 28.5124 23.4139 28.3474 23.4165ZM8.63333 25.9C9.31413 25.9 9.86667 26.4525 9.86667 27.1333C9.86667 27.8141 9.31413 28.3667 8.63333 28.3667C7.95253 28.3667 7.4 27.8141 7.4 27.1333C7.4 26.4525 7.95253 25.9 8.63333 25.9ZM13.5667 25.9C14.2475 25.9 14.8 26.4525 14.8 27.1333C14.8 27.8141 14.2475 28.3667 13.5667 28.3667C12.8859 28.3667 12.3333 27.8141 12.3333 27.1333C12.3333 26.4525 12.8859 25.9 13.5667 25.9ZM18.5 25.9C19.1808 25.9 19.7333 26.4525 19.7333 27.1333C19.7333 27.8141 19.1808 28.3667 18.5 28.3667C17.8192 28.3667 17.2667 27.8141 17.2667 27.1333C17.2667 26.4525 17.8192 25.9 18.5 25.9Z" fill="url(#paint0_linear)"/>
<defs>
<linearGradient id="paint0_linear" x1="7.33834" y1="8.13997" x2="37.6312" y2="10.051" gradientUnits="userSpaceOnUse">
<stop stop-color="#D4AC59"/>
<stop offset="0.694326" stop-color="#FFDF9C"/>
<stop offset="1" stop-color="#D4AC59"/>
</linearGradient>
</defs>
</svg>
