<svg width="70" height="70" viewBox="0 0 70 70" fill="none" xmlns="http://www.w3.org/2000/svg">
<path d="M11.6667 9.33337C9.08833 9.33337 7 11.4217 7 14C7 16.5784 9.08833 18.6667 11.6667 18.6667H14V23.3334L18.6667 18.6667H32.6667C35.245 18.6667 37.3333 16.5784 37.3333 14C37.3333 11.4217 35.245 9.33337 32.6667 9.33337H11.6667ZM40.7012 9.33337C41.5038 10.7124 42 12.292 42 14C42 15.708 41.5038 17.2877 40.7012 18.6667H51.3333L56 23.3334V18.6667H58.3333C60.9117 18.6667 63 16.5784 63 14C63 11.4217 60.9117 9.33337 58.3333 9.33337H40.7012ZM21 25.6713C15.3463 25.6713 10.7598 29.074 10.7598 35.1687C10.7598 37.7447 12.209 39.7533 12.209 39.7533C12.209 39.7533 11.5482 40.0719 11.5482 41.4486C11.5482 44.1226 13.2663 44.7618 13.2663 44.7618C13.4506 46.3858 15.421 48.577 16.3333 49.515V52.14C14.1587 55.465 9.226 54.8917 7 60.6667H35C32.774 54.8917 27.8413 55.4627 25.6667 52.14V49.5196C26.579 48.5816 28.5494 46.388 28.7337 44.7663C28.7337 44.7663 30.4518 43.5788 30.4518 41.4532C30.4518 39.9785 29.791 39.7533 29.791 39.7533C29.791 39.7533 30.9759 37.5112 30.9759 35.3692C30.9759 31.0758 28.8208 27.7722 25.2018 27.7722C25.2018 27.7722 23.6623 25.6713 21 25.6713ZM49 25.6713C43.3463 25.6713 38.7598 29.074 38.7598 35.1687C38.7598 37.7447 40.209 39.7533 40.209 39.7533C40.209 39.7533 39.5482 40.0719 39.5482 41.4486C39.5482 44.1226 41.2663 44.7618 41.2663 44.7618C41.4506 46.3858 43.421 48.577 44.3333 49.515V52.14C42.9193 54.3007 40.3413 54.8213 38.099 56.5013C38.5563 57.2387 38.9882 58.0424 39.3522 58.9851L40.0039 60.6667H63C60.774 54.8917 55.8413 55.4627 53.6667 52.14V49.5196C54.579 48.5816 56.5494 46.388 56.7337 44.7663C56.7337 44.7663 58.4518 43.5788 58.4518 41.4532C58.4518 39.9785 57.791 39.7533 57.791 39.7533C57.791 39.7533 58.9759 37.5112 58.9759 35.3692C58.9759 31.0758 56.8208 27.7722 53.2018 27.7722C53.2018 27.7722 51.6623 25.6713 49 25.6713Z" fill="url(#paint0_linear)"/>
<defs>
<linearGradient id="paint0_linear" x1="11.2" y1="14.4667" x2="64.0624" y2="18.1046" gradientUnits="userSpaceOnUse">
<stop stop-color="#D4AC59"/>
<stop offset="0.694326" stop-color="#FFDF9C"/>
<stop offset="1" stop-color="#D4AC59"/>
</linearGradient>
</defs>
</svg>
