<svg width="70" height="70" viewBox="0 0 70 70" fill="none" xmlns="http://www.w3.org/2000/svg">
<path d="M35 4.66663C33.1435 4.66663 31.363 5.40412 30.0503 6.71688C28.7375 8.02963 28 9.81011 28 11.6666C28 13.5231 28.7375 15.3036 30.0503 16.6164C31.363 17.9291 33.1435 18.6666 35 18.6666C36.8565 18.6666 38.637 17.9291 39.9497 16.6164C41.2625 15.3036 42 13.5231 42 11.6666C42 9.81011 41.2625 8.02963 39.9497 6.71688C38.637 5.40412 36.8565 4.66663 35 4.66663ZM20.9635 6.96806C20.3455 6.97772 19.7565 7.23219 19.3259 7.67563C18.8953 8.11906 18.6582 8.71523 18.6667 9.33329V18.1152C18.6667 20.7622 20.1691 23.1935 22.5358 24.3769L28 27.1067V60.5891C28 61.9192 29.0808 63 30.4108 63C31.6801 63 32.7331 62.0157 32.8171 60.7487L33.8379 45.4179C33.8799 44.8089 34.3863 44.3333 35 44.3333C35.6137 44.3333 36.1201 44.8111 36.1621 45.4225L37.1829 60.7487C37.2669 62.0133 38.3199 63 39.5892 63C40.9192 63 42 61.9192 42 60.5891V27.1067L47.4642 24.3769C49.8326 23.1927 51.3333 20.761 51.3333 18.1152V9.33329C51.3377 9.0241 51.2806 8.71712 51.1653 8.43019C51.05 8.14327 50.8788 7.88212 50.6617 7.66192C50.4446 7.44173 50.1859 7.26687 49.9006 7.14753C49.6154 7.02818 49.3092 6.96673 49 6.96673C48.6908 6.96673 48.3846 7.02818 48.0994 7.14753C47.8141 7.26687 47.5554 7.44173 47.3383 7.66192C47.1212 7.88212 46.95 8.14327 46.8347 8.43019C46.7194 8.71712 46.6623 9.0241 46.6667 9.33329V18.1152C46.6667 19.002 46.1726 19.8046 45.377 20.2024L39.1152 23.3333H30.8848L24.623 20.2024C23.8258 19.8038 23.3333 19.0055 23.3333 18.1152V9.33329C23.3376 9.02112 23.2792 8.71126 23.1616 8.42206C23.0439 8.13287 22.8695 7.87022 22.6485 7.64967C22.4275 7.42912 22.1645 7.25516 21.8751 7.13808C21.5857 7.021 21.2757 6.96318 20.9635 6.96806ZM63 18.6666L61.1133 20.5579C59.137 19.3002 57.0294 19.3781 55.4987 20.9088C53.975 22.4301 53.9223 24.2729 55.362 26.4733L56.3828 28.0501C57.3418 29.5364 57.4755 30.4027 56.8385 31.0397C56.0849 31.7933 54.7881 31.5505 53.7031 30.4655C52.5271 29.2895 52.2281 27.9552 52.9421 27.0475L50.9232 25.0286C49.4438 26.6316 49.4709 28.7657 50.8639 30.8027L49 32.6666L51.3333 35L53.2018 33.1315C55.3275 34.5781 57.5172 34.5331 59.1856 32.8671C60.7349 31.3178 60.7403 29.5882 59.1536 27.1569L58.2057 25.694C57.2841 24.2753 57.1613 23.4434 57.7773 22.8274C58.5403 22.0668 59.7125 22.2743 60.7578 23.3196C61.7682 24.3276 61.9771 25.5912 61.2865 26.4778L63.2507 28.442C64.6483 26.9394 64.6693 24.814 63.4466 22.8867L65.3333 21L63 18.6666ZM9.33333 25.6666L7 28L8.88672 29.8867C7.63139 31.863 7.71152 33.9706 9.24219 35.5013C10.7635 37.0249 12.6063 37.0776 14.8066 35.638L16.3835 34.6171C17.8721 33.6558 18.736 33.5244 19.373 34.1614C20.1267 34.9174 19.8862 36.2118 18.7988 37.2968C17.6228 38.4728 16.2885 38.7719 15.3809 38.0579L13.362 40.0768C14.965 41.5538 17.0991 41.529 19.1361 40.136L21 42L23.3333 39.6666L21.4648 37.7981C22.9138 35.6725 22.8643 33.4827 21.196 31.8144C19.6466 30.2651 17.917 30.262 15.4857 31.8463L14.0273 32.7942C12.6087 33.7159 11.7768 33.8386 11.1608 33.2226C10.4001 32.4596 10.6077 31.2875 11.653 30.2421C12.6633 29.2318 13.9223 29.0228 14.8066 29.7135L16.7708 27.7493C15.2705 26.3516 13.1474 26.3307 11.2201 27.5533L9.33333 25.6666Z" fill="url(#paint0_linear)"/>
<defs>
<linearGradient id="paint0_linear" x1="11.375" y1="10.4999" x2="66.4815" y2="13.9763" gradientUnits="userSpaceOnUse">
<stop stop-color="#D4AC59"/>
<stop offset="0.694326" stop-color="#FFDF9C"/>
<stop offset="1" stop-color="#D4AC59"/>
</linearGradient>
</defs>
</svg>
