<svg width="37" height="37" viewBox="0 0 37 37" fill="none" xmlns="http://www.w3.org/2000/svg">
<path d="M22.8167 3.70001C17.0274 3.70001 12.3333 8.39408 12.3333 14.1833C12.3333 15.4688 12.5771 16.6947 13.0006 17.8328L3.70001 27.1333V33.3H9.86668V29.6H13.5667V25.9H17.2667L19.1673 23.9994C20.3054 24.4229 21.5312 24.6667 22.8167 24.6667C28.6059 24.6667 33.3 19.9726 33.3 14.1833C33.3 8.39408 28.6059 3.70001 22.8167 3.70001ZM25.2833 8.63335C26.9866 8.63335 28.3667 10.0134 28.3667 11.7167C28.3667 13.4199 26.9866 14.8 25.2833 14.8C23.5801 14.8 22.2 13.4199 22.2 11.7167C22.2 10.0134 23.5801 8.63335 25.2833 8.63335Z" fill="url(#paint0_linear)"/>
<defs>
<linearGradient id="paint0_linear" x1="5.92001" y1="6.66" x2="33.8826" y2="8.424" gradientUnits="userSpaceOnUse">
<stop stop-color="#D4AC59"/>
<stop offset="0.694326" stop-color="#FFDF9C"/>
<stop offset="1" stop-color="#D4AC59"/>
</linearGradient>
</defs>
</svg>
