<svg width="72" height="72" viewBox="0 0 72 72" fill="none" xmlns="http://www.w3.org/2000/svg">
<path d="M0 0H72V70C72 71.1046 71.1046 72 70 72H2C0.895431 72 0 71.1046 0 70V0Z" fill="url(#paint0_linear)"/>
<path fill-rule="evenodd" clip-rule="evenodd" d="M34.7188 16.9458L33.4849 15.5749L33.2107 14.4096L32.868 13.9297L32.2511 13.3813L31.7027 12.9015L31.2914 12.4217L30.9487 12.2846H30.743V11.5305L29.9204 11.0507L29.0978 10.4338L28.618 10.091L28.2067 9.81682L27.7269 9.54263H26.6987L25.6704 9.26843L23.8196 9.13134L24.8479 9.81682L23.1342 9.95392L24.0253 10.9821L23.9567 11.2563H22.3116L20.735 12.3531L22.4487 12.0789L22.9971 12.6273V12.9015L21.9688 13.3813L21.0092 13.7241L21.9688 13.9297L22.0374 14.0668L21.9688 14.4096L21.2833 14.8208L20.8721 15.1636L19.9809 15.9176L21.2833 15.7805H21.5575H22.3116H22.7229V16.0547L22.0374 16.6716L21.5575 17.22L20.5979 18.1112L21.9688 17.7684L22.7229 17.9741H23.1342L22.9971 18.4539L22.3116 19.0708L21.9688 19.5507L21.4204 20.2362L22.3116 19.962H22.7229L23.4083 19.7563H23.6825V19.962L23.4083 20.2362L23.1342 20.6474L22.9285 20.9216L22.5172 21.5386H23.1342H23.4083L23.9567 21.2644L24.5051 20.9902L24.985 20.7845L24.7108 21.8813L24.5051 22.841L28.0011 20.2362L28.3438 20.5103V20.7845L27.3841 21.8813L24.7108 23.8692L23.6825 24.2119L23.1342 24.8974L22.9971 25.4458L22.7229 25.9257V26.474L22.5172 27.091V27.5708V28.0506L20.5979 30.0385L20.1866 30.9297L19.364 32.7119L19.1584 34.1514L19.364 35.591L19.7067 36.9619L19.8438 37.853L20.0495 38.9498L20.1866 39.6353L20.5979 40.5264L20.8035 41.2805L21.2148 42.2401L21.4204 42.8571V43.2684L21.2148 43.6111L20.5979 43.8853L19.7067 44.228L18.6785 44.7079L17.7874 45.1192L16.9648 45.5304L16.2108 45.8732L9.35596 49.0264V49.849H10.1785L12.8519 48.478L21.7632 44.228H23.7511L24.5737 43.8853L24.7108 44.3651L23.9567 45.5304L23.3398 47.2442L20.735 52.1796L19.9124 53.4135L19.0213 54.5103L18.4729 55.4014L17.7188 56.5667L17.1705 57.9377L16.8963 58.8974V59.9256L17.7188 60.2683L18.1987 60.7482L18.4729 61.228L17.7188 61.982L17.3076 62.8046V63.9014L16.485 64.7925L15.114 66.3006V66.7119H16.0737H16.8963H17.7188H18.4729L18.7471 65.9578C18.8385 65.8893 19.0213 65.6836 19.0213 65.4094C19.0213 65.1352 19.1127 64.8839 19.1584 64.7925L19.4325 63.6957L19.6382 62.8046V61.982L19.9124 61.5707H21.0092L21.2833 61.228H21.6946V61.5707H22.3801V61.228L22.7914 60.9538V59.9256H23.4083V60.2683H23.8882L24.1624 59.7199V59.4457L24.368 59.2401L24.5051 58.8974V58.6232H25.1906L25.3962 56.5667L24.6422 54.6474L24.1624 54.3046L23.8882 54.0304L24.368 53.6191L26.493 51.2885H26.9729L27.1785 52.1796L27.3841 53.0022L27.7269 53.6191L28.0011 54.3046L28.2753 54.9901V55.8127L29.0293 56.2925L29.4406 57.5264L29.8519 58.0748L30.5374 58.8974L30.8801 59.2401L31.3599 59.4457L31.7712 59.2401L32.6624 58.8974V58.4175C32.6624 58.3078 32.7081 57.8691 32.7309 57.6635L32.868 56.8409L33.2107 55.1958V53.2079H33.6906L33.9648 53.6191L33.6906 54.3046L33.7591 54.853L34.3075 54.9901L34.5817 55.3328V55.8127L34.7188 55.9498L35.0615 55.8127L35.6099 55.607L35.8841 55.1958V54.3046H36.2269V54.0304L36.5696 53.4135V53.0022L36.9809 52.5909L37.3236 52.7966V53.4135V54.0304C37.3465 54.1447 37.4059 54.4006 37.4607 54.5103C37.4863 54.5613 37.5213 54.6124 37.5587 54.6669C37.6219 54.7589 37.6919 54.861 37.7349 54.9901C37.765 55.0803 37.7819 55.1573 37.7971 55.2268C37.8167 55.316 37.8335 55.393 37.872 55.4699L38.0091 54.3046V53.8248L38.2833 53.2079L38.489 54.3046V54.9901L38.6261 55.607L38.8317 56.2925C38.9231 56.6581 39.1059 57.4167 39.1059 57.5264C39.1059 57.6361 39.1516 58.0748 39.1744 58.2804L39.3801 58.8974L39.5857 59.4457V60.2683V62.3933V63.5586L39.997 64.1756L40.614 64.3812H41.6422H42.6018L43.5615 64.1756L44.5212 64.3812L45.2752 64.7925L46.1664 65.0667H46.9204H47.4002L47.6059 64.3812L47.4688 64.0385L46.5776 63.5586L46.1664 63.353L45.2752 63.0788L44.5212 62.7361H44.1785L43.4244 62.2562L43.1502 61.8449L42.6018 61.5022L42.3962 61.1594V60.8853L42.6018 60.6796V59.6514C42.6704 59.56 42.8075 59.2812 42.8075 58.8974V57.8691C42.8075 57.5949 42.6704 56.7038 42.6018 56.2925V54.9901V53.6191C42.5333 53.482 42.3962 53.1667 42.3962 53.0022C42.3962 52.8377 42.2591 52.6595 42.1906 52.5909C42.1449 52.5224 42.0123 52.3441 41.8478 52.1796C41.6833 52.0151 41.7793 51.0143 41.8478 50.5345L40.4769 49.1635C40.3626 48.8893 40.1204 48.2861 40.0656 48.0667C40.0459 47.9882 40.0319 47.8927 40.0171 47.7917C39.9801 47.5401 39.9381 47.2538 39.7914 47.1071C39.6269 46.9425 39.5857 46.6729 39.5857 46.5587C39.5857 46.3987 39.5446 46.0377 39.3801 45.8732C39.3358 45.8289 39.2852 45.7846 39.2329 45.739C39.0427 45.5726 38.8317 45.3881 38.8317 45.1192C38.8317 44.926 38.7664 44.7764 38.7094 44.6458C38.6652 44.5447 38.6261 44.4549 38.6261 44.3651C38.6261 44.3234 38.6289 44.2846 38.6316 44.2462C38.6426 44.0954 38.6529 43.9529 38.489 43.6796C38.3659 43.1463 38.12 42.8094 37.9424 42.566C37.8233 42.4028 37.7349 42.2817 37.7349 42.1716C37.7349 41.9522 37.4607 41.7603 37.3236 41.6917V40.595V39.2926L36.5011 37.853L39.5857 35.7966H40.9567L41.5736 35.3853L47.743 32.2321V31.8894V31.7523L46.7833 31.8894L45.8236 32.3692L45.2752 32.5063L44.7268 32.9176L44.247 33.1918L43.7672 33.466L42.9446 33.6031L42.3962 34.0143H41.7793L41.368 34.2885L40.6825 34.6313L40.2712 34.8369L39.5857 35.2482L39.3801 35.6595L39.0373 35.7966L38.489 36.0022L37.7349 36.2764L37.118 36.4821L36.5011 36.6192L36.2954 34.0143L36.0898 32.3692V31.0668L35.8841 27.2966L35.4043 25.7886V24.4861L36.0898 23.7321L37.2551 23.3894L38.8317 22.7724L39.7228 22.087L40.614 21.5386L41.7107 21.0587L42.7389 20.5103L43.6301 19.4136L44.3841 18.5224L45.0696 17.9055L45.2752 17.2886L45.5494 16.9458H45.9607H46.4406L47.4002 17.2886L47.9486 17.6313L48.9083 17.9055L49.868 18.2483L50.5534 18.5224H51.1704L51.5131 18.7281L52.4042 18.9337H53.0897H54.3921L55.1462 19.0708H56.5857L57.2712 19.6192L60.2873 21.1958L61.8639 21.8813H62.3437V21.4015V20.9902L58.0252 18.7281L56.3115 16.6031L55.0091 14.9579L53.2954 13.3128L48.7712 10.0225L46.9889 9.19989L44.5897 8.10311L41.9849 7.14344L40.2027 6.86925L38.4204 6.59505H36.9123L34.239 6.38941L33.2107 5.84102L32.2511 5.08699L31.497 4.88135L30.9487 5.08699V5.56683L31.497 6.04667L32.1825 6.32086L32.5938 6.59505L33.0051 6.73215L33.4849 6.86925C33.5306 6.98349 33.6632 7.26683 33.8277 7.48618C33.9922 7.70553 34.1704 7.89747 34.239 7.96602C34.3989 8.12596 34.7188 8.45957 34.7188 8.5144C34.7188 8.56924 34.993 8.85715 35.1301 8.99424L35.8841 10.091L36.5696 10.4338L36.9123 10.845L38.4204 11.8047L39.0373 12.4217L40.4769 13.6555L41.1623 14.2039L41.9849 14.5466L42.6018 14.8894L43.0817 15.1636L43.4244 15.5749L43.5615 15.9862L41.0938 17.9741L40.751 18.5224L40.614 18.8652L40.4769 19.1394L40.0656 19.2765L39.1744 19.1394C39.0373 19.2308 38.7494 19.4136 38.6946 19.4136C38.6261 19.4136 38.4204 19.4821 38.4204 19.5507C38.4204 19.6055 38.0091 19.7563 37.8035 19.8249L37.5293 20.0991L37.2551 20.2362H36.5696H35.8841C35.7927 20.1905 35.5688 20.0991 35.4043 20.0991H34.7188L34.4446 19.962L34.0333 19.5507V18.8652V17.6999L34.239 17.2886L34.7188 16.9458ZM25.3962 28.2563L25.0535 28.7362L24.6422 29.1475L24.1623 29.8329L23.8882 30.3813L23.4769 30.9983L23.2712 31.4781L22.8599 31.9579L22.5857 32.4378V32.8491L22.3115 33.2603L22.0373 33.6031V36.4136V37.9216L22.5857 39.2926L22.7228 40.1837L22.997 40.7321L23.7511 41.0063H24.7793L25.5333 40.8692L25.8075 40.1837L25.9446 39.7039L26.3559 39.0184L26.493 38.5386L26.8357 38.0587L27.1785 37.5789L28.0696 36.7563L28.2752 36.1394L28.4809 35.7281L28.8922 35.1797L28.5494 33.5345L28.2752 32.8491L27.6583 32.1636L27.3156 31.341L26.9728 30.7241L26.6986 29.97L26.1502 28.7362L25.8075 28.2563H25.3962Z" fill="black"/>
<defs>
<linearGradient id="paint0_linear" x1="5.4" y1="7.19997" x2="73.4172" y2="11.4908" gradientUnits="userSpaceOnUse">
<stop stop-color="#D4AC59"/>
<stop offset="0.694326" stop-color="#FFDF9C"/>
<stop offset="1" stop-color="#D4AC59"/>
</linearGradient>
</defs>
</svg>
