<svg width="26" height="26" viewBox="0 0 26 26" fill="none" xmlns="http://www.w3.org/2000/svg">
<path d="M13 0C12.448 0 12 0.448 12 1V1.17188C12 1.64987 11.6634 2.07634 11.1914 2.15234C10.9624 2.18934 10.7357 2.2322 10.5117 2.2832C10.0477 2.3892 9.57848 2.1265 9.39648 1.6875L9.33008 1.53125C9.11908 1.02125 8.53444 0.778234 8.02344 0.990234C7.51344 1.20123 7.27042 1.78588 7.48242 2.29688L7.54883 2.45703C7.73283 2.89703 7.58569 3.41792 7.17969 3.66992C6.98369 3.79192 6.79247 3.91973 6.60547 4.05273C6.21747 4.32973 5.68075 4.26669 5.34375 3.92969L5.22266 3.80859C4.83166 3.41759 4.19859 3.41759 3.80859 3.80859C3.41859 4.19959 3.41859 4.83266 3.80859 5.22266L3.92969 5.34375C4.26669 5.68075 4.32973 6.21647 4.05273 6.60547C3.91973 6.79247 3.79192 6.98369 3.66992 7.17969C3.41792 7.58569 2.89608 7.73378 2.45508 7.55078L2.29688 7.48438C1.78688 7.27338 1.20028 7.51539 0.988281 8.02539C0.777281 8.53539 1.0193 9.12003 1.5293 9.33203L1.68555 9.39648C2.12455 9.57848 2.3892 10.0477 2.2832 10.5117C2.2322 10.7357 2.18739 10.9624 2.15039 11.1914C2.07539 11.6624 1.64987 12 1.17188 12H1C0.448 12 0 12.448 0 13C0 13.552 0.448 14 1 14H1.17188C1.64987 14 2.07634 14.3366 2.15234 14.8086C2.18934 15.0376 2.2322 15.2643 2.2832 15.4883C2.3892 15.9523 2.1265 16.4215 1.6875 16.6035L1.53125 16.6699C1.02125 16.8809 0.778234 17.4656 0.990234 17.9766C1.20123 18.4866 1.78588 18.7296 2.29688 18.5176L2.45703 18.4512C2.89803 18.2682 3.41887 18.4153 3.67188 18.8203C3.79387 19.0163 3.92069 19.2085 4.05469 19.3965C4.33169 19.7845 4.26864 20.3212 3.93164 20.6582L3.80859 20.7793C3.41759 21.1703 3.41759 21.8034 3.80859 22.1934C4.19959 22.5834 4.83266 22.5844 5.22266 22.1934L5.3457 22.0723C5.6827 21.7353 6.21747 21.6703 6.60547 21.9473C6.79347 22.0813 6.98564 22.21 7.18164 22.332C7.58664 22.584 7.73573 23.1059 7.55273 23.5469L7.48633 23.7051C7.27533 24.2151 7.51734 24.8017 8.02734 25.0137C8.53734 25.2247 9.12198 24.9827 9.33398 24.4727L9.39844 24.3164C9.58044 23.8774 10.0497 23.6127 10.5137 23.7188C10.7377 23.7698 10.9644 23.8146 11.1934 23.8516C11.6624 23.9246 12 24.3501 12 24.8281V25C12 25.552 12.448 26 13 26C13.552 26 14 25.552 14 25V24.8281C14 24.3501 14.3366 23.9237 14.8086 23.8477C15.0376 23.8107 15.2643 23.7678 15.4883 23.7168C15.9523 23.6108 16.4215 23.8735 16.6035 24.3125L16.6699 24.4688C16.8809 24.9788 17.4656 25.2218 17.9766 25.0098C18.4866 24.7988 18.7296 24.2141 18.5176 23.7031L18.4512 23.543C18.2682 23.102 18.4153 22.5811 18.8203 22.3281C19.0163 22.2061 19.2085 22.0793 19.3965 21.9453C19.7845 21.6683 20.3212 21.7314 20.6582 22.0684L20.7793 22.1914C21.1703 22.5824 21.8034 22.5824 22.1934 22.1914C22.5834 21.8004 22.5844 21.1673 22.1934 20.7773L22.0723 20.6543C21.7353 20.3173 21.6703 19.7825 21.9473 19.3945C22.0813 19.2065 22.21 19.0144 22.332 18.8184C22.584 18.4134 23.1059 18.2643 23.5469 18.4473L23.7051 18.5137C24.2151 18.7247 24.8017 18.4827 25.0137 17.9727C25.2247 17.4627 24.9827 16.878 24.4727 16.666L24.3164 16.6016C23.8774 16.4196 23.6127 15.9503 23.7188 15.4863C23.7698 15.2623 23.8146 15.0356 23.8516 14.8066C23.9246 14.3376 24.3501 14 24.8281 14H25C25.552 14 26 13.552 26 13C26 12.448 25.552 12 25 12H24.8281C24.3501 12 23.9237 11.6634 23.8477 11.1914C23.8107 10.9624 23.7678 10.7357 23.7168 10.5117C23.6108 10.0477 23.8735 9.57848 24.3125 9.39648L24.4688 9.33008C24.9788 9.11908 25.2218 8.53444 25.0098 8.02344C24.7988 7.51344 24.2141 7.27042 23.7031 7.48242L23.543 7.54883C23.102 7.73183 22.5811 7.58469 22.3281 7.17969C22.2061 6.98369 22.0793 6.79152 21.9453 6.60352C21.6683 6.21552 21.7314 5.6788 22.0684 5.3418L22.1914 5.2207C22.5824 4.8297 22.5824 4.19664 22.1914 3.80664C21.8004 3.41564 21.1673 3.41564 20.7773 3.80664L20.6562 3.92969C20.3193 4.26669 19.7825 4.33169 19.3945 4.05469C19.2065 3.92069 19.0144 3.79192 18.8184 3.66992C18.4134 3.41792 18.2662 2.89608 18.4492 2.45508L18.5156 2.29688C18.7266 1.78688 18.4846 1.20028 17.9746 0.988281C17.4646 0.777281 16.88 1.0193 16.668 1.5293L16.6016 1.68555C16.4196 2.12455 15.9503 2.3892 15.4863 2.2832C15.2623 2.2322 15.0356 2.18739 14.8066 2.15039C14.3366 2.07539 14 1.64987 14 1.17188V1C14 0.448 13.552 0 13 0ZM12 5.06836V9C12 9.04639 12.0033 9.09273 12.0098 9.13867C11.2918 9.32261 10.6495 9.68994 10.1465 10.2031C10.1109 10.1779 10.0737 10.1551 10.0352 10.1348L6.63281 8.16992C7.90333 6.498 9.81234 5.34177 12 5.06836ZM14 5.06836C16.1877 5.34177 18.0967 6.498 19.3672 8.16992L15.9648 10.1348C15.9263 10.1551 15.8891 10.1779 15.8535 10.2031C15.3509 9.69037 14.7094 9.32278 13.9922 9.13867C13.998 9.09268 14.0006 9.04635 14 9V5.06836ZM5.625 9.89648L9.03516 11.8652C9.07583 11.8904 9.11826 11.9126 9.16211 11.9316C9.0669 12.2737 9 12.6276 9 13C9 13.3732 9.06843 13.7276 9.16406 14.0703C9.1196 14.0887 9.07652 14.1102 9.03516 14.1348L5.625 16.1035C5.22273 15.149 5 14.1008 5 13C5 11.8992 5.22273 10.851 5.625 9.89648ZM20.375 9.89648C20.7773 10.851 21 11.8992 21 13C21 14.1008 20.7773 15.149 20.375 16.1035L16.9648 14.1348C16.9235 14.1102 16.8804 14.0887 16.8359 14.0703C16.9316 13.7276 17 13.3732 17 13C17 12.6283 16.9328 12.2751 16.8379 11.9336C16.8818 11.9139 16.9242 11.891 16.9648 11.8652L20.375 9.89648ZM13 11.5C13.828 11.5 14.5 12.172 14.5 13C14.5 13.828 13.828 14.5 13 14.5C12.172 14.5 11.5 13.828 11.5 13C11.5 12.172 12.172 11.5 13 11.5ZM10.1426 15.793C10.6462 16.3082 11.2899 16.6769 12.0098 16.8613C12.0033 16.9073 12 16.9536 12 17V20.9316C9.81234 20.6582 7.90333 19.502 6.63281 17.8301L10.0352 15.8652C10.0725 15.8435 10.1084 15.8194 10.1426 15.793ZM15.8574 15.793C15.8916 15.8194 15.9275 15.8435 15.9648 15.8652L19.3672 17.8301C18.0967 19.502 16.1877 20.6582 14 20.9316V17C14 16.9536 13.9967 16.9073 13.9902 16.8613C14.7101 16.6769 15.3538 16.3082 15.8574 15.793Z" fill="url(#paint0_linear)"/>
<defs>
<linearGradient id="paint0_linear" x1="1.95" y1="2.59999" x2="26.5118" y2="4.14945" gradientUnits="userSpaceOnUse">
<stop stop-color="#D4AC59"/>
<stop offset="0.694326" stop-color="#FFDF9C"/>
<stop offset="1" stop-color="#D4AC59"/>
</linearGradient>
</defs>
</svg>
