<svg width="70" height="70" viewBox="0 0 70 70" fill="none" xmlns="http://www.w3.org/2000/svg">
<path d="M16.3334 7C14.4769 7 12.6964 7.7375 11.3836 9.05025C10.0709 10.363 9.33337 12.1435 9.33337 14C9.33337 15.8565 10.0709 17.637 11.3836 18.9497C12.6964 20.2625 14.4769 21 16.3334 21C18.1899 21 19.9704 20.2625 21.2831 18.9497C22.5959 17.637 23.3334 15.8565 23.3334 14C23.3334 12.1435 22.5959 10.363 21.2831 9.05025C19.9704 7.7375 18.1899 7 16.3334 7ZM35 9.33333C32.4217 9.33333 30.3334 11.4217 30.3334 14V21H35V14H56V39.6667H35V35H30.3334V53.6667H60.6667V14C60.6667 11.4217 58.5784 9.33333 56 9.33333H35ZM14 25.6667C11.4217 25.6667 9.33337 27.755 9.33337 30.3333V60.5892C9.33337 61.9192 10.4142 63 11.7442 63C13.0135 63 14.0664 62.0134 14.1504 60.7487L15.1713 45.4225C15.2133 44.8112 15.7197 44.3333 16.3334 44.3333C16.947 44.3333 17.4535 44.809 17.4955 45.418L18.5163 60.7487C18.6003 62.0157 19.6532 63 20.9226 63C22.2526 63 23.3334 61.9192 23.3334 60.5892V32.6667C23.3334 31.3787 24.3787 30.3333 25.6667 30.3333H28H37.3334C37.6426 30.3377 37.9495 30.2806 38.2365 30.1653C38.5234 30.05 38.7845 29.8788 39.0047 29.6617C39.2249 29.4446 39.3998 29.1859 39.5191 28.9006C39.6385 28.6154 39.6999 28.3092 39.6999 28C39.6999 27.6908 39.6385 27.3846 39.5191 27.0994C39.3998 26.8141 39.2249 26.5554 39.0047 26.3383C38.7845 26.1212 38.5234 25.95 38.2365 25.8347C37.9495 25.7194 37.6426 25.6623 37.3334 25.6667H28H21H14ZM30.3334 58.3333C30.0242 58.329 29.7172 58.3861 29.4303 58.5014C29.1433 58.6167 28.8822 58.7879 28.662 59.005C28.4418 59.2221 28.2669 59.4808 28.1476 59.766C28.0283 60.0513 27.9668 60.3574 27.9668 60.6667C27.9668 60.9759 28.0283 61.282 28.1476 61.5673C28.2669 61.8526 28.4418 62.1113 28.662 62.3284C28.8822 62.5455 29.1433 62.7166 29.4303 62.8319C29.7172 62.9472 30.0242 63.0044 30.3334 63H60.6667C60.9759 63.0044 61.2829 62.9472 61.5698 62.8319C61.8567 62.7166 62.1179 62.5455 62.3381 62.3284C62.5583 62.1113 62.7331 61.8526 62.8525 61.5673C62.9718 61.282 63.0333 60.9759 63.0333 60.6667C63.0333 60.3574 62.9718 60.0513 62.8525 59.766C62.7331 59.4808 62.5583 59.2221 62.3381 59.005C62.1179 58.7879 61.8567 58.6167 61.5698 58.5014C61.2829 58.3861 60.9759 58.329 60.6667 58.3333H30.3334Z" fill="url(#paint0_linear)"/>
<defs>
<linearGradient id="paint0_linear" x1="13.3609" y1="12.6" x2="64.1064" y2="15.6697" gradientUnits="userSpaceOnUse">
<stop stop-color="#D4AC59"/>
<stop offset="0.694326" stop-color="#FFDF9C"/>
<stop offset="1" stop-color="#D4AC59"/>
</linearGradient>
</defs>
</svg>
