<svg width="92" height="92" viewBox="0 0 92 92" fill="none" xmlns="http://www.w3.org/2000/svg">
<path d="M46 0L72.0107 10.1994L89.7486 31.7852L88.0862 59.6746L73.0381 83.2148L46 90.252L18.9619 83.2148L3.91385 59.6746L2.2514 31.7852L19.9893 10.1994L46 0Z" fill="url(#paint0_linear)"/>
<path d="M21.807 35.3223L20.9236 34.8123L24.6436 28.3691L20.6945 26.0891L16.9745 32.5323L16.0912 32.0223L20.2912 24.7477L26.007 28.0477L21.807 35.3223ZM24.3541 36.0169C24.1688 35.2818 24.2782 34.5644 24.6822 33.8646C25.0902 33.158 25.6548 32.708 26.3761 32.5147C27.1083 32.3185 27.845 32.4344 28.5863 32.8624C29.3277 33.2904 29.793 33.8685 29.9822 34.5967C30.1824 35.322 30.0785 36.038 29.6705 36.7446C29.2625 37.4513 28.6924 37.9027 27.9602 38.0989C27.239 38.2922 26.5077 38.1748 25.7663 37.7468C25.032 37.3228 24.5612 36.7462 24.3541 36.0169ZM26.7128 33.4435C26.232 33.5724 25.8495 33.8827 25.5655 34.3746C25.2815 34.8665 25.2005 35.3509 25.3224 35.8277C25.4472 36.3155 25.7452 36.6954 26.2163 36.9674C26.6875 37.2394 27.16 37.309 27.6339 37.1761C28.1187 37.0404 28.5032 36.7265 28.7872 36.2346C29.0632 35.7566 29.1407 35.2702 29.0199 34.7755C28.902 34.2917 28.6075 33.9139 28.1363 33.6419C27.6652 33.3699 27.1907 33.3037 26.7128 33.4435ZM33.729 42.2055L32.8976 41.7255L35.1476 37.8284L32.6015 36.3584L30.3515 40.2555L29.5201 39.7755L32.2201 35.0989L36.429 37.5289L33.729 42.2055ZM41.2386 40.3058L42.1843 40.8518L37.6137 44.4483C36.7982 45.0768 36.1877 45.4541 35.7823 45.5803C35.351 45.7193 34.9657 45.6908 34.6262 45.4948C34.3213 45.3188 34.0829 45.0518 33.9108 44.6938L34.547 44.2159C34.7087 44.4478 34.8519 44.5997 34.9766 44.6717C35.1706 44.7837 35.3918 44.8006 35.6403 44.7223C35.8956 44.648 36.211 44.4698 36.5863 44.1877L36.8342 43.9983L37.2895 38.0258L38.2872 38.6018L37.9429 42.366C37.9427 42.4305 37.9002 42.72 37.8155 43.2346C38.0099 43.042 38.2206 42.845 38.4478 42.6436L41.2386 40.3058ZM44.0359 48.1562L43.2046 47.6762L45.4246 43.8311L43.7826 42.8831L43.2746 43.6429C42.8472 44.2552 42.454 44.7441 42.0952 45.1097C41.7473 45.4723 41.4247 45.711 41.1275 45.8258C40.8412 45.9376 40.5806 45.9811 40.3455 45.9562C40.1144 45.9245 39.8638 45.8306 39.5936 45.6746L39.9992 44.828C40.0715 44.8789 40.1571 44.9145 40.2563 44.9348C40.3594 44.9481 40.4895 44.9309 40.6465 44.8829C40.8104 44.839 40.9805 44.7525 41.1567 44.6232C41.3398 44.498 41.5526 44.2976 41.7949 44.0218C42.0482 43.7431 42.3032 43.4054 42.56 43.0086L43.4831 41.6017L46.7359 43.4797L44.0359 48.1562ZM50.2821 45.527L51.737 46.367L49.037 51.0436L48.2056 50.5636L49.1056 49.0047L48.2015 48.4827L46.1583 49.3816L45.1503 48.7996L47.5213 47.8129C47.2732 47.5865 47.1222 47.2961 47.0682 46.9416C47.0182 46.5802 47.0932 46.2263 47.2932 45.8799C47.5692 45.4018 47.9604 45.1242 48.4668 45.0471C48.9772 44.9631 49.5823 45.123 50.2821 45.527ZM48.1646 46.4107C48.0366 46.6324 48.0172 46.866 48.1064 47.1115C48.1996 47.35 48.364 47.5373 48.5995 47.6733L49.5556 48.2253L50.4556 46.6665L49.697 46.2285C49.3436 46.0245 49.0349 45.9432 48.7708 45.9847C48.5066 46.0262 48.3046 46.1682 48.1646 46.4107ZM50.1796 54.4746L49.3483 53.9946L53.2483 47.2396L54.0796 47.7196L53.7616 48.2704C54.0399 48.1724 54.3586 48.1485 54.7175 48.1987C55.0805 48.242 55.4179 48.3536 55.7297 48.5336C56.3948 48.9176 56.7899 49.4413 56.9149 50.1047C57.0578 50.7692 56.9273 51.4513 56.5233 52.1511C56.1113 52.8647 55.5401 53.334 54.8098 53.559C54.0904 53.781 53.3669 53.682 52.6395 53.262C52.0783 52.938 51.7003 52.5766 51.5056 52.1779L50.1796 54.4746ZM55.0406 49.1751C54.4864 48.8551 53.9121 48.8098 53.3176 49.0394L51.9796 51.3569C52.2068 51.8114 52.5525 52.1726 53.0167 52.4406C53.5086 52.7246 53.9901 52.7947 54.461 52.6509C54.943 52.5043 55.3299 52.178 55.6219 51.6723C55.9059 51.1804 55.9968 50.7109 55.8946 50.2639C55.7964 49.81 55.5118 49.4471 55.0406 49.1751ZM60.5837 57.7101L59.7523 57.2301L60.8923 55.2555L58.2943 53.7555L57.1543 55.7301L56.3229 55.2501L59.0229 50.5735L59.8543 51.0535L58.7443 52.9761L61.3423 54.4761L62.4523 52.5535L63.2837 53.0335L60.5837 57.7101ZM63.5943 59.4482L62.0874 58.5782L64.7874 53.9017L65.6188 54.3817L64.8088 55.7846L65.5778 56.2286C66.2152 56.5966 66.5988 57.0121 66.7287 57.4751C66.8627 57.9312 66.7856 58.4086 66.4976 58.9074C66.2256 59.3786 65.8417 59.6835 65.346 59.8222C64.864 59.9689 64.2801 59.8442 63.5943 59.4482ZM67.2627 61.5662L66.4314 61.0862L69.1314 56.4097L69.9627 56.8897L67.2627 61.5662ZM64.9719 56.9181L64.3588 56.5641L63.3688 58.2788L63.9715 58.6268C64.3664 58.8548 64.6939 58.9515 64.9541 58.9169C65.2142 58.8824 65.4283 58.7196 65.5963 58.4286C65.9283 57.8536 65.7201 57.3501 64.9719 56.9181ZM74.2985 60.9864L69.5865 62.9078L68.7551 62.4278L71.4551 57.7513L72.2865 58.2313L70.2765 61.7127L74.9885 59.7913L75.8199 60.2713L73.1199 64.9478L72.2885 64.4678L74.2985 60.9864ZM73.5002 55.7451L74.2796 56.1951C74.0052 56.7664 74.1139 57.194 74.6058 57.478C75.07 57.746 75.4809 57.6184 75.8385 57.0951L76.6179 57.5451C76.3739 57.9677 76.0264 58.2335 75.5754 58.3427C75.1354 58.4489 74.6902 58.372 74.2398 58.112C73.7479 57.828 73.4359 57.4723 73.3039 57.0451C73.1828 56.6149 73.2482 56.1815 73.5002 55.7451Z" fill="#2B2C31"/>
<defs>
<linearGradient id="paint0_linear" x1="6.9" y1="9.19996" x2="93.8108" y2="14.6827" gradientUnits="userSpaceOnUse">
<stop stop-color="#D4AC59"/>
<stop offset="0.694326" stop-color="#FFDF9C"/>
<stop offset="1" stop-color="#D4AC59"/>
</linearGradient>
</defs>
</svg>
