<svg width="97" height="97" viewBox="0 0 97 97" fill="none" xmlns="http://www.w3.org/2000/svg">
<path d="M48.5002 8.08325C37.781 8.08325 27.5009 12.3414 19.9213 19.921C12.3417 27.5006 8.0835 37.7808 8.0835 48.4999C8.0835 59.2191 12.3417 69.4992 19.9213 77.0788C27.5009 84.6584 37.781 88.9166 48.5002 88.9166C59.2193 88.9166 69.4995 84.6584 77.0791 77.0788C84.6587 69.4992 88.9168 59.2191 88.9168 48.4999C88.9168 37.7808 84.6587 27.5006 77.0791 19.921C69.4995 12.3414 59.2193 8.08325 48.5002 8.08325Z" fill="#29B6F6"/>
<path d="M68.6075 30.3126L61.0374 68.9631C61.0374 68.9631 60.7121 70.7293 58.5215 70.7293C57.3575 70.7293 56.7573 70.1756 56.7573 70.1756L40.3602 56.5693L32.3375 52.5256L22.0414 49.7874C22.0414 49.7874 20.2085 49.2579 20.2085 47.7423C20.2085 46.4793 22.0939 45.877 22.0939 45.877L65.17 28.7646C65.168 28.7626 66.4856 28.2897 67.4455 28.2918C68.0356 28.2918 68.7085 28.5444 68.7085 29.3022C68.7085 29.8074 68.6075 30.3126 68.6075 30.3126Z" fill="white"/>
<path d="M46.4791 61.6456L39.5557 68.4639C39.5557 68.4639 39.2546 68.6963 38.8525 68.7064C38.713 68.7104 38.5635 68.6882 38.4099 68.6195L40.358 56.5652L46.4791 61.6456Z" fill="#B0BEC5"/>
<path d="M60.417 36.7711C60.0755 36.3265 59.445 36.2457 59.0004 36.5832L32.3335 52.5417C32.3335 52.5417 36.5894 64.4484 37.2381 66.5097C37.8888 68.573 38.4101 68.6215 38.4101 68.6215L40.3582 56.5672L60.2271 38.1857C60.6716 37.8482 60.7545 37.2157 60.417 36.7711Z" fill="#CFD8DC"/>
</svg>
