<svg width="28" height="26" viewBox="0 0 28 26" fill="none" xmlns="http://www.w3.org/2000/svg">
<path d="M2 0C0.895 0 0 0.895 0 2V6V22H12.5234C12.2974 21.362 12.1356 20.695 12.0586 20H2V6H24V10.5234C24.711 10.7754 25.384 11.1046 26 11.5176V3V2C26 0.895 25.105 0 24 0H2ZM6 9C5.73478 9 5.48043 9.10536 5.29289 9.29289C5.10536 9.48043 5 9.73478 5 10C5 10.2652 5.10536 10.5196 5.29289 10.7071C5.48043 10.8946 5.73478 11 6 11C6.26522 11 6.51957 10.8946 6.70711 10.7071C6.89464 10.5196 7 10.2652 7 10C7 9.73478 6.89464 9.48043 6.70711 9.29289C6.51957 9.10536 6.26522 9 6 9ZM10 9C9.448 9 9 9.448 9 10C9 10.552 9.448 11 10 11H16.8887C17.8367 10.512 18.8813 10.1855 19.9883 10.0605C19.9893 10.0395 20 10.021 20 10C20 9.448 19.552 9 19 9H10ZM21 12C20.7348 12 20.4805 12.1054 20.2929 12.2929C20.1054 12.4805 20 12.7348 20 13V14C19.9976 14.2498 20.0887 14.4914 20.2554 14.6774C20.4222 14.8634 20.6525 14.9802 20.901 15.005C21.1496 15.0297 21.3984 14.9605 21.5985 14.8111C21.7986 14.6616 21.9356 14.4426 21.9824 14.1973C24.2632 14.664 26 16.5755 26 19C26 21.7737 23.7737 24 21 24C18.2263 24 16 21.7737 16 19C16 17.6134 16.5593 16.3692 17.4648 15.4629C17.5607 15.3706 17.6371 15.2601 17.6897 15.1379C17.7424 15.0157 17.77 14.8843 17.7712 14.7512C17.7724 14.6182 17.747 14.4863 17.6965 14.3632C17.6461 14.2401 17.5716 14.1283 17.4774 14.0343C17.3831 13.9404 17.2711 13.8662 17.1479 13.8161C17.0247 13.7659 16.8927 13.7409 16.7596 13.7424C16.6266 13.744 16.4952 13.772 16.3732 13.825C16.2511 13.8779 16.1408 13.9547 16.0488 14.0508C14.7843 15.3164 14 17.0726 14 19C14 22.8543 17.1457 26 21 26C24.8543 26 28 22.8543 28 19C28 15.1457 24.8543 12 21 12ZM6 13C5.73478 13 5.48043 13.1054 5.29289 13.2929C5.10536 13.4804 5 13.7348 5 14C5 14.2652 5.10536 14.5196 5.29289 14.7071C5.48043 14.8946 5.73478 15 6 15C6.26522 15 6.51957 14.8946 6.70711 14.7071C6.89464 14.5196 7 14.2652 7 14C7 13.7348 6.89464 13.4804 6.70711 13.2929C6.51957 13.1054 6.26522 13 6 13ZM10 13C9.448 13 9 13.448 9 14C9 14.552 9.448 15 10 15H12.9473C13.3103 14.271 13.7676 13.6 14.3066 13H10ZM19.4863 16.4863C19.287 16.486 19.0921 16.5452 18.9266 16.6564C18.7612 16.7676 18.6328 16.9257 18.5578 17.1105C18.4829 17.2952 18.4649 17.4981 18.5061 17.6931C18.5473 17.8882 18.6458 18.0664 18.7891 18.2051L20.293 19.707C20.3851 19.803 20.4955 19.8796 20.6176 19.9324C20.7397 19.9852 20.8712 20.0131 21.0042 20.0144C21.1373 20.0158 21.2692 19.9906 21.3924 19.9403C21.5156 19.89 21.6275 19.8157 21.7216 19.7216C21.8157 19.6275 21.89 19.5156 21.9403 19.3924C21.9906 19.2692 22.0158 19.1373 22.0144 19.0042C22.0131 18.8712 21.9852 18.7397 21.9324 18.6176C21.8796 18.4955 21.803 18.3851 21.707 18.293L20.2051 16.7891C20.1117 16.693 19.9999 16.6167 19.8764 16.5647C19.753 16.5127 19.6203 16.4861 19.4863 16.4863Z" fill="url(#paint0_linear)"/>
<defs>
<linearGradient id="paint0_linear" x1="2.1" y1="2.59999" x2="28.5344" y2="4.39586" gradientUnits="userSpaceOnUse">
<stop stop-color="#D4AC59"/>
<stop offset="0.694326" stop-color="#FFDF9C"/>
<stop offset="1" stop-color="#D4AC59"/>
</linearGradient>
</defs>
</svg>
