<svg width="80" height="80" viewBox="0 0 80 80" fill="none" xmlns="http://www.w3.org/2000/svg">
<path d="M40 0L62.618 8.86903L78.0423 27.6393L76.5967 51.891L63.5114 72.3607L40 78.48L16.4886 72.3607L3.40334 51.891L1.95774 27.6393L17.382 8.86903L40 0Z" fill="white"/>
<path d="M29.4314 27.3596L33.6194 20.1057C34.5984 20.634 35.2715 21.0042 35.6387 21.2162C36.4285 21.6722 36.922 22.1695 37.119 22.7082C37.327 23.244 37.267 23.7959 36.939 24.364C36.695 24.7867 36.3801 25.076 35.9944 25.2321C35.6087 25.3881 35.1839 25.42 34.7199 25.3276L34.7079 25.3484C35.135 25.6966 35.3942 26.0956 35.4855 26.5456C35.5837 26.9995 35.4948 27.4655 35.2188 27.9435C34.8188 28.6363 34.2792 29.0269 33.6001 29.1151C32.925 29.1965 32.1787 29.0011 31.3612 28.5291C30.5644 28.0691 29.9212 27.6793 29.4314 27.3596ZM33.3971 25.2428L32.2227 24.5648L30.7947 27.0382C31.0628 27.2299 31.4289 27.4598 31.8931 27.7278C32.4404 28.0438 32.9236 28.1749 33.3426 28.1212C33.7725 28.0646 34.1135 27.818 34.3655 27.3815C34.5855 27.0005 34.608 26.6255 34.433 26.2566C34.2689 25.8847 33.9236 25.5468 33.3971 25.2428ZM35.1379 22.0356C34.9301 21.9156 34.5604 21.7159 34.0287 21.4367L32.6727 23.7854L33.8367 24.4574C34.2454 24.6934 34.6435 24.78 35.0307 24.7172C35.422 24.6475 35.7256 24.4256 35.9416 24.0515C36.3896 23.2755 36.1217 22.6036 35.1379 22.0356ZM41.0398 29.4337L36.3278 31.3551L35.4965 30.8751L38.1965 26.1985L39.0278 26.6785L37.0178 30.16L41.7298 28.2385L42.5612 28.7185L39.8612 33.3951L39.0298 32.9151L41.0398 29.4337ZM40.8477 35.4888L40.0683 35.0388L41.1783 33.1162L41.7602 33.4522C42.0574 33.3375 42.4098 33.0791 42.8175 32.677C43.2291 32.268 43.6277 31.7776 44.0133 31.2058L44.8 30.0111L47.9905 31.8531L45.7405 35.7502L46.5199 36.2002L45.4099 38.1228L44.6305 37.6728L45.2905 36.5297L41.5077 34.3457L40.8477 35.4888ZM45.1295 31.2405L44.6275 31.99C44.2859 32.4856 43.9288 32.9122 43.5561 33.2697C43.1834 33.6273 42.8792 33.8581 42.6436 33.9622L44.9091 35.2702L46.7091 32.1525L45.1295 31.2405ZM51.3359 38.4681L51.2178 39.2728C50.5314 39.4216 49.828 39.288 49.1075 38.872C48.3453 38.432 47.8671 37.8603 47.6728 37.1569C47.4715 36.4494 47.5849 35.7251 48.0129 34.9838C48.4169 34.284 48.9677 33.8261 49.6652 33.6099C50.3558 33.3897 51.0787 33.4976 51.8339 33.9336C52.4575 34.2936 52.8576 34.7925 53.0344 35.4303C53.2221 36.0652 53.1339 36.6979 52.7699 37.3284C52.6539 37.5293 52.5286 37.7064 52.394 37.8596L48.7982 35.7836C48.5809 36.2401 48.5457 36.677 48.6927 37.0944C48.8466 37.5158 49.1556 37.8605 49.6198 38.1285C50.2295 38.4805 50.8015 38.5937 51.3359 38.4681ZM51.3424 34.689C50.9336 34.453 50.5281 34.3713 50.1259 34.4439C49.7306 34.5206 49.4007 34.732 49.1363 35.0781L51.9734 36.7161C52.1766 36.3161 52.2209 35.9353 52.1064 35.5736C51.9989 35.2159 51.7442 34.921 51.3424 34.689ZM53.023 40.2181C52.8378 39.483 52.9471 38.7656 53.3511 38.0658C53.7591 37.3591 54.3238 36.9092 55.045 36.7159C55.7772 36.5197 56.514 36.6356 57.2553 37.0636C57.9966 37.4916 58.4619 38.0697 58.6512 38.7979C58.8514 39.5232 58.7474 40.2391 58.3394 40.9458C57.9314 41.6525 57.3614 42.1039 56.6292 42.3001C55.9079 42.4934 55.1766 42.376 54.4353 41.948C53.7009 41.524 53.2302 40.9474 53.023 40.2181ZM55.3817 37.6447C54.9009 37.7735 54.5185 38.0839 54.2345 38.5758C53.9505 39.0677 53.8694 39.5521 53.9914 40.0289C54.1162 40.5167 54.4142 40.8966 54.8853 41.1686C55.3564 41.4406 55.8289 41.5102 56.3028 41.3773C56.7877 41.2415 57.1721 40.9277 57.4561 40.4358C57.7321 39.9578 57.8097 39.4714 57.6888 38.9767C57.5709 38.4929 57.2764 38.115 56.8053 37.843C56.3342 37.571 55.8597 37.5049 55.3817 37.6447ZM18.5751 41.1142C18.3898 40.3791 18.4992 39.6616 18.9032 38.9619C19.3112 38.2552 19.8758 37.8052 20.5971 37.612C21.3293 37.4158 22.066 37.5317 22.8073 37.9597C23.5487 38.3877 24.0139 38.9658 24.2032 39.694C24.4034 40.4192 24.2995 41.1352 23.8915 41.8419C23.4835 42.5486 22.9134 43 22.1812 43.1962C21.4599 43.3894 20.7287 43.2721 19.9873 42.8441C19.253 42.4201 18.7822 41.8434 18.5751 41.1142ZM20.9338 38.5408C20.453 38.6696 20.0705 38.98 19.7865 39.4719C19.5025 39.9638 19.4215 40.4481 19.5434 40.925C19.6682 41.4128 19.9662 41.7926 20.4373 42.0646C20.9085 42.3366 21.381 42.4062 21.8549 42.2734C22.3397 42.1376 22.7241 41.8238 23.0081 41.3319C23.2841 40.8538 23.3617 40.3675 23.2409 39.8728C23.123 39.389 22.8285 39.0111 22.3573 38.7391C21.8862 38.4671 21.4117 38.401 20.9338 38.5408ZM26.9008 41.5701L25.186 40.5801L25.666 39.7487L29.9269 42.2087L29.4469 43.0401L27.7322 42.0501L25.5122 45.8953L24.6808 45.4153L26.9008 41.5701ZM29.6239 48.4078C29.2706 48.2038 28.9305 47.9289 28.6036 47.5831C28.2945 47.2384 28.1123 46.93 28.057 46.6578L28.843 46.2803C28.9421 46.5407 29.0918 46.7934 29.2922 47.0384C29.5034 47.2805 29.7164 47.4635 29.9312 47.5875C30.2915 47.7955 30.6259 47.8962 30.9346 47.8897C31.2472 47.8762 31.4695 47.7551 31.6015 47.5265C31.7135 47.3325 31.7164 47.1355 31.6101 46.9356C31.5107 46.7397 31.319 46.5597 31.035 46.3957L30.2452 45.9397L30.6352 45.2642L31.373 45.6902C31.6086 45.8262 31.8386 45.8759 32.063 45.8392C32.2914 45.7955 32.4596 45.6802 32.5676 45.4931C32.6876 45.2853 32.6916 45.0705 32.5794 44.8487C32.4713 44.62 32.2648 44.4176 31.96 44.2416C31.4681 43.9576 30.9004 43.8608 30.257 43.9512L30.3068 43.1209C30.6059 43.0349 30.9537 43.0325 31.3503 43.1136C31.7538 43.1988 32.1426 43.3494 32.5167 43.5654C33.0709 43.8854 33.4365 44.2442 33.6133 44.6419C33.7971 45.0436 33.775 45.4419 33.547 45.8368C33.235 46.3772 32.7493 46.5864 32.09 46.4644L32.078 46.4852C32.3628 46.6959 32.5318 46.9551 32.5851 47.2629C32.6423 47.5639 32.5869 47.8598 32.4189 48.1508C32.1709 48.5803 31.7893 48.8173 31.2741 48.8616C30.7698 48.903 30.2198 48.7518 29.6239 48.4078ZM34.4427 51.0513L32.9358 50.1813L35.6358 45.5048L36.4672 45.9848L35.6572 47.3877L36.4262 47.8317C37.0636 48.1997 37.4473 48.6152 37.5772 49.0782C37.7111 49.5343 37.6341 50.0117 37.3461 50.5105C37.0741 50.9817 36.6902 51.2866 36.1944 51.4253C35.7125 51.572 35.1286 51.4473 34.4427 51.0513ZM38.1112 53.1693L37.2798 52.6893L39.9798 48.0128L40.8112 48.4928L38.1112 53.1693ZM35.8204 48.5212L35.2072 48.1672L34.2172 49.8819L34.82 50.2299C35.2149 50.4579 35.5424 50.5546 35.8025 50.52C36.0627 50.4855 36.2767 50.3227 36.4447 50.0317C36.7767 49.4567 36.5686 48.9532 35.8204 48.5212ZM39.6035 54.0309L42.3035 49.3544C42.3382 49.3744 42.3867 49.4024 42.449 49.4384C42.5154 49.4675 42.6075 49.516 42.7252 49.584C42.847 49.6451 42.9564 49.7036 43.0534 49.7596C43.5741 50.0417 43.8968 50.2188 44.0215 50.2908C45.3656 51.0668 45.8056 51.8567 45.3416 52.6603C45.1816 52.9375 44.957 53.1265 44.6678 53.2274C44.3826 53.3214 44.0894 53.3092 43.7883 53.1907L43.7763 53.2115C44.4278 53.7632 44.5795 54.3403 44.2315 54.9431C43.7075 55.8507 42.7284 55.8905 41.2943 55.0625C41.225 55.0225 40.9242 54.8396 40.3918 54.5137C40.2878 54.4537 40.1755 54.3842 40.0548 54.3053C39.9301 54.2333 39.8351 54.1739 39.7698 54.1269C39.7005 54.0869 39.6451 54.0549 39.6035 54.0309ZM42.6446 52.9877L41.6469 52.4117L40.8189 53.8458C41.3058 54.1546 41.6185 54.349 41.757 54.429C42.5538 54.889 43.0961 54.8696 43.3841 54.3707C43.6601 53.8927 43.4136 53.4317 42.6446 52.9877ZM43.6938 51.0023C43.4929 50.8863 43.1786 50.7187 42.7509 50.4995L41.9469 51.8921L42.9966 52.4981C43.2806 52.6621 43.5472 52.7282 43.7964 52.6966C44.0457 52.665 44.2343 52.5383 44.3623 52.3166C44.6303 51.8524 44.4075 51.4143 43.6938 51.0023ZM46.2457 57.8658L44.7388 56.9958L47.4388 52.3192L48.2702 52.7992L47.4602 54.2022L48.2292 54.6462C48.8666 55.0142 49.2503 55.4297 49.3802 55.8927C49.5141 56.3487 49.4371 56.8262 49.1491 57.325C48.8771 57.7961 48.4932 58.101 47.9974 58.2397C47.5155 58.3864 46.9316 58.2618 46.2457 57.8658ZM49.9142 59.9838L49.0828 59.5038L51.7828 54.8272L52.6142 55.3072L49.9142 59.9838ZM47.6233 55.3356L47.0102 54.9816L46.0202 56.6963L46.6229 57.0443C47.0179 57.2723 47.3454 57.3691 47.6055 57.3345C47.8656 57.2999 48.0797 57.1372 48.2477 56.8462C48.5797 56.2711 48.3716 55.7676 47.6233 55.3356Z" fill="#2B2C31"/>
</svg>
