<svg width="75" height="75" viewBox="0 0 75 75" fill="none" xmlns="http://www.w3.org/2000/svg">
<path d="M37.5 0L58.7044 8.31471L73.1646 25.9119L71.8094 48.6478L59.5419 67.8381L37.5 73.575L15.4581 67.8381L3.19064 48.6478L1.83538 25.9119L16.2956 8.31471L37.5 0Z" fill="url(#paint0_linear)"/>
<path d="M21.0141 30.9639L25.1961 23.7205C25.9643 24.1178 26.674 24.5045 27.3253 24.8805C28.129 25.3445 28.6363 25.8499 28.8472 26.3966C29.0581 26.9433 29.0015 27.4972 28.6775 28.0584C28.2255 28.8413 27.5611 29.1921 26.6843 29.1108L26.6723 29.1315C27.0072 29.4635 27.205 29.8409 27.2656 30.2639C27.3302 30.68 27.2326 31.1132 26.9726 31.5635C26.5646 32.2702 26.0101 32.6706 25.3091 32.7647C24.6081 32.8588 23.8419 32.6659 23.0106 32.1859C22.1792 31.7059 21.5137 31.2986 21.0141 30.9639ZM24.9964 29.1062L24.0923 28.5842L22.9823 30.5068C23.2879 30.7294 23.5585 30.9088 23.7941 31.0448C24.6809 31.5568 25.3263 31.4629 25.7303 30.7631C25.9063 30.4583 25.9274 30.1657 25.7937 29.8852C25.664 29.5979 25.3983 29.3382 24.9964 29.1062ZM26.6145 26.0636C26.3097 25.8876 26.0369 25.744 25.7963 25.6328L24.7343 27.4722L25.5969 27.9702C25.9225 28.1582 26.2303 28.2251 26.5203 28.1708C26.8172 28.1206 27.0557 27.9395 27.2357 27.6278C27.4037 27.3368 27.4312 27.0571 27.3183 26.7887C27.2094 26.5133 26.9748 26.2716 26.6145 26.0636ZM29.4468 31.2184L29.6495 30.1714C30.3272 30.1655 30.964 30.3346 31.5598 30.6786C32.2111 31.0546 32.5937 31.4879 32.7076 31.9786C32.8215 32.4693 32.6885 33.0438 32.3085 33.7019L30.6645 36.5494L29.6252 35.9494L29.9372 35.409C29.4281 35.6509 28.8514 35.5858 28.207 35.2138C27.7636 34.9578 27.4808 34.6236 27.3586 34.2113C27.2474 33.796 27.3177 33.3701 27.5697 32.9336C27.8497 32.4487 28.2216 32.1645 28.6854 32.0813C29.1492 31.998 29.6374 32.1044 30.1501 32.4004C30.5727 32.6444 30.868 32.9488 31.0361 33.3137C31.2899 32.9061 31.4036 32.5652 31.377 32.2912C31.3574 32.0212 31.1848 31.7922 30.8591 31.6042C30.4989 31.3962 30.0281 31.2676 29.4468 31.2184ZM29.184 34.4337C29.5858 34.6657 29.9692 34.6977 30.3341 34.5296L30.6101 34.0516C30.5041 33.7872 30.2744 33.553 29.9211 33.349C29.6994 33.221 29.4893 33.1689 29.2907 33.1929C29.0921 33.2168 28.9408 33.3188 28.8368 33.4989C28.7408 33.6652 28.7252 33.8363 28.7899 34.0122C28.8586 34.1812 28.99 34.3217 29.184 34.4337ZM39.6714 35.5142L41.0848 36.3302L38.2283 37.7018L38.5095 41.0788L37.0962 40.2628L36.9293 36.9518L39.6714 35.5142ZM35.4853 39.3328L34.2902 38.6428L36.9902 33.9662L38.1853 34.6562L35.4853 39.3328ZM31.2972 36.9148L34.3416 35.4578L34.0908 32.2922L35.5457 33.1322L35.6303 36.2018L32.721 37.7368L31.2972 36.9148ZM43.6951 44.0727L42.5 43.3827L43.532 41.5952L41.4847 40.4132L40.4527 42.2007L39.2576 41.5107L41.9576 36.8341L43.1527 37.5241L42.1327 39.2908L44.18 40.4728L45.2 38.7061L46.3951 39.3961L43.6951 44.0727ZM45.7574 44.5012C45.5612 43.769 45.6691 43.0461 46.0811 42.3325C46.4931 41.6189 47.0632 41.1675 47.7914 40.9782C48.5236 40.782 49.2742 40.906 50.0432 41.35C50.8053 41.79 51.2845 42.376 51.4806 43.1082C51.6878 43.8375 51.5853 44.5589 51.1733 45.2725C50.7653 45.9792 50.1898 46.4321 49.4466 46.6312C48.7115 46.8165 47.9664 46.6911 47.2112 46.2551C46.4422 45.8111 45.9576 45.2265 45.7574 44.5012ZM48.2751 42.3244C47.8886 42.4339 47.5833 42.6826 47.3593 43.0705C47.1353 43.4585 47.0671 43.8487 47.1547 44.241C47.2532 44.6304 47.486 44.9311 47.8532 45.1431C48.2273 45.3591 48.6042 45.4104 48.9837 45.297C49.3702 45.1876 49.6775 44.9354 49.9055 44.5405C50.1295 44.1526 50.1922 43.7639 50.0937 43.3744C49.9952 42.985 49.7624 42.6843 49.3952 42.4723C49.0349 42.2643 48.6616 42.215 48.2751 42.3244ZM53.8892 46.605L52.6214 45.873L55.3694 41.1133L56.6372 41.8453L53.8892 46.605ZM51.4531 47.5125C51.5691 47.3116 51.7473 47.1789 51.9877 47.1145C52.2391 47.0472 52.486 47.0835 52.7285 47.2235C52.9363 47.3435 53.067 47.5252 53.1205 47.7685C53.1849 48.0089 53.1591 48.2296 53.0431 48.4305C52.9111 48.6592 52.7209 48.8126 52.4725 48.8909C52.235 48.9662 52.0123 48.9439 51.8045 48.8239C51.562 48.6839 51.4071 48.4882 51.3397 48.2369C51.2833 47.9826 51.3211 47.7412 51.4531 47.5125Z" fill="#2B2C31"/>
<defs>
<linearGradient id="paint0_linear" x1="5.625" y1="7.49997" x2="76.4762" y2="11.9696" gradientUnits="userSpaceOnUse">
<stop stop-color="#D4AC59"/>
<stop offset="0.694326" stop-color="#FFDF9C"/>
<stop offset="1" stop-color="#D4AC59"/>
</linearGradient>
</defs>
</svg>
